<svg width="64" height="64" viewBox="0 0 64 64" fill="none" xmlns="http://www.w3.org/2000/svg">
  <rect width="64" height="64" rx="14" fill="#111113"/>
  <g transform="translate(4 11.16) scale(0.651)">
    <path d="M21 13 H10 V51 H21" fill="none" stroke="#22d3ee" stroke-width="5" stroke-linecap="round" stroke-linejoin="round"/>
    <path d="M65 13 H76 V51 H65" fill="none" stroke="#ec4899" stroke-width="5" stroke-linecap="round" stroke-linejoin="round"/>
    <path fill="#fafafa" d="M32.55 44.31Q30.35 44.31 28.73 43.49Q27.12 42.67 26.24 41.16Q25.35 39.66 25.35 37.61V27.76Q25.35 25.71 26.24 24.21Q27.12 22.7 28.73 21.88Q30.35 21.06 32.55 21.06Q34.72 21.06 36.33 21.88Q37.94 22.7 38.84 24.21Q39.74 25.71 39.74 27.76H35.83Q35.83 26.18 34.98 25.32Q34.13 24.47 32.55 24.47Q30.97 24.47 30.1 25.31Q29.23 26.14 29.23 27.73V37.61Q29.23 39.2 30.1 40.06Q30.97 40.93 32.55 40.93Q34.13 40.93 34.98 40.06Q35.83 39.2 35.83 37.61V35.1H31.99V31.76H39.74V37.61Q39.74 39.66 38.84 41.16Q37.94 42.67 36.33 43.49Q34.72 44.31 32.55 44.31ZM45.61 44V21.37H53.14Q55.41 21.37 57.1 22.24Q58.79 23.11 59.72 24.67Q60.65 26.24 60.65 28.34Q60.65 30.45 59.72 32.02Q58.79 33.58 57.1 34.45Q55.41 35.32 53.14 35.32H49.48V44ZM49.48 31.91H53.14Q54.79 31.91 55.75 30.92Q56.71 29.93 56.71 28.34Q56.71 26.76 55.75 25.77Q54.79 24.78 53.14 24.78H49.48Z"/>
  </g>
</svg>
