<svg width="1024" height="1024" viewBox="0 0 1024 1024" fill="none" xmlns="http://www.w3.org/2000/svg">
  <defs>
    <radialGradient id="glow" cx="50%" cy="42%" r="55%">
      <stop offset="0%" stop-color="#a855f7" stop-opacity="0.20"/>
      <stop offset="55%" stop-color="#22d3ee" stop-opacity="0.06"/>
      <stop offset="100%" stop-color="#ec4899" stop-opacity="0"/>
    </radialGradient>
  </defs>
  <rect width="1024" height="1024" rx="220" fill="#0c0c0e"/>
  <rect width="1024" height="1024" rx="220" fill="url(#glow)"/>
  <rect x="6" y="6" width="1012" height="1012" rx="214" fill="none" stroke="rgba(255,255,255,0.07)" stroke-width="2"/>
  <g transform="translate(512 512) scale(11) translate(-32 -32)">
    <path d="M20.5 14 H12 V50 H20.5" fill="none" stroke="#22d3ee" stroke-width="5" stroke-linecap="round" stroke-linejoin="round"/>
    <path d="M43.5 14 H52 V50 H43.5" fill="none" stroke="#ec4899" stroke-width="5" stroke-linecap="round" stroke-linejoin="round"/>
    <path fill="#fafafa" d="M25.58 39.69Q24.13 39.69 23.06 39.14Q22 38.6 21.41 37.61Q20.83 36.61 20.83 35.26V28.74Q20.83 27.39 21.41 26.39Q22 25.4 23.06 24.86Q24.13 24.31 25.58 24.31Q27.02 24.31 28.08 24.86Q29.15 25.4 29.75 26.39Q30.34 27.39 30.34 28.74H27.76Q27.76 27.7 27.19 27.13Q26.63 26.57 25.58 26.57Q24.54 26.57 23.96 27.12Q23.39 27.67 23.39 28.72V35.26Q23.39 36.3 23.96 36.88Q24.54 37.45 25.58 37.45Q26.63 37.45 27.19 36.88Q27.76 36.3 27.76 35.26V33.6H25.21V31.39H30.34V35.26Q30.34 36.61 29.75 37.61Q29.15 38.6 28.08 39.14Q27.02 39.69 25.58 39.69ZM33.23 39.48V24.52H38.21Q39.71 24.52 40.83 25.09Q41.94 25.67 42.56 26.7Q43.17 27.74 43.17 29.13Q43.17 30.52 42.56 31.56Q41.94 32.59 40.83 33.17Q39.71 33.74 38.21 33.74H35.79V39.48ZM35.79 31.49H38.21Q39.3 31.49 39.93 30.83Q40.57 30.18 40.57 29.13Q40.57 28.08 39.93 27.43Q39.3 26.77 38.21 26.77H35.79Z"/>
  </g>
</svg>
